<svg width="201" height="46" viewBox="0 0 201 46" fill="none" xmlns="http://www.w3.org/2000/svg">
<g clip-path="url(#clip0_67_2774)">
<path d="M97.6494 23.7511L100.411 15.2256H101.837L103.783 20.9984H103.803L105.723 15.2256H107.149L109.898 23.7511H107.868L106.398 18.7806H106.372L104.618 23.7511H102.929L101.176 18.7806H101.157L99.6792 23.7511H97.6494Z" fill="#F2ECE6"/>
<path d="M110.417 20.6568C110.438 20.0389 110.638 19.441 110.992 18.9377C111.345 18.4344 111.837 18.0479 112.405 17.8263C112.974 17.6048 113.594 17.558 114.188 17.6918C114.783 17.8256 115.325 18.1341 115.748 18.5788C116.171 19.0235 116.456 19.5848 116.567 20.1927C116.678 20.8007 116.611 21.4284 116.373 21.9976C116.135 22.5669 115.738 23.0526 115.23 23.3941C114.723 23.7356 114.128 23.9179 113.519 23.9183C113.098 23.9341 112.678 23.8596 112.288 23.6998C111.897 23.5399 111.544 23.2983 111.251 22.9906C110.959 22.6829 110.733 22.3161 110.589 21.914C110.445 21.5119 110.386 21.0835 110.417 20.6568ZM114.791 20.6568C114.791 19.7045 114.309 19.0326 113.506 19.0326C112.703 19.0326 112.222 19.6849 112.222 20.6568C112.222 21.6288 112.716 22.3137 113.506 22.3137C114.296 22.3137 114.791 21.5831 114.791 20.6568Z" fill="#F2ECE6"/>
<path d="M117.513 20.6586C117.513 18.78 118.695 17.4493 120.506 17.4493C120.927 17.428 121.348 17.4926 121.744 17.6394C122.14 17.7861 122.503 18.0121 122.812 18.3038L121.714 19.4257C121.571 19.2859 121.402 19.1778 121.216 19.1081C121.03 19.0385 120.832 19.0089 120.634 19.0213C119.845 19.0213 119.35 19.6736 119.35 20.6586C119.35 21.6435 119.832 22.3154 120.634 22.3154C120.831 22.3268 121.028 22.2981 121.213 22.2308C121.399 22.1636 121.569 22.0593 121.714 21.924L122.831 23.046C122.522 23.3368 122.159 23.5618 121.763 23.7074C121.367 23.8531 120.946 23.9165 120.525 23.894C118.714 23.894 117.532 22.5894 117.532 20.6325" fill="#F2ECE6"/>
<path d="M125.987 16.8563H123.38V15.2256H130.83L130.252 16.8563H127.844V23.7511H125.987V16.8563Z" fill="#F2ECE6"/>
<path d="M133.373 25.9992H131.619V17.5977H133.373V18.2043C133.58 17.9537 133.841 17.755 134.137 17.6238C134.432 17.4925 134.753 17.4323 135.075 17.4477C136.655 17.4477 137.843 18.7522 137.843 20.6569C137.843 22.5616 136.655 23.9184 135.075 23.9184C134.753 23.9346 134.433 23.8754 134.137 23.7453C133.842 23.6152 133.581 23.4177 133.373 23.1683V25.9992ZM134.657 22.2877C134.983 22.3382 135.317 22.2863 135.613 22.1391C135.909 21.9918 136.154 21.7562 136.315 21.4637C136.475 21.1713 136.544 20.836 136.512 20.5027C136.48 20.1693 136.349 19.854 136.135 19.5987C135.922 19.3434 135.636 19.1604 135.318 19.0742C134.999 18.9881 134.662 19.0028 134.352 19.1165C134.042 19.2302 133.773 19.4374 133.582 19.7103C133.391 19.9833 133.287 20.309 133.283 20.6439C133.26 20.8448 133.277 21.0484 133.335 21.242C133.393 21.4356 133.489 21.6151 133.618 21.7693C133.747 21.9235 133.906 22.0491 134.084 22.1383C134.263 22.2275 134.458 22.2783 134.657 22.2877Z" fill="#F2ECE6"/>
<path d="M138.709 21.8242C138.709 20.8457 139.512 19.8151 141.387 19.8151C141.726 19.8136 142.065 19.8332 142.402 19.8738V19.789C142.402 19.215 141.946 19.0063 141.432 19.0063C140.927 19.0141 140.436 19.1729 140.019 19.4629L138.985 18.3996C139.683 17.7826 140.578 17.4442 141.503 17.4473C143.089 17.4473 144.156 18.367 144.156 19.8412V23.755H142.428V23.1027C142.251 23.3695 142.005 23.5819 141.717 23.7165C141.43 23.8511 141.111 23.9028 140.796 23.8659C140.525 23.8748 140.255 23.8276 140.003 23.7272C139.751 23.6267 139.521 23.4752 139.328 23.2817C139.135 23.0883 138.983 22.857 138.881 22.6019C138.779 22.3468 138.729 22.0733 138.734 21.7981L138.709 21.8242ZM142.428 21.3741V21.1654C142.176 21.1113 141.92 21.0829 141.663 21.0806C140.861 21.0806 140.52 21.3741 140.514 21.785C140.507 22.196 140.809 22.4895 141.349 22.4765C141.493 22.483 141.636 22.459 141.771 22.4058C141.905 22.3526 142.027 22.2715 142.128 22.1677C142.23 22.0639 142.309 21.9397 142.361 21.803C142.412 21.6664 142.435 21.5203 142.428 21.3741Z" fill="#F2ECE6"/>
<path d="M145.747 17.5967H147.501V19.8601H149.479V17.5967H151.233V23.7478H149.479V21.4191H147.501V23.7478H145.747V17.5967Z" fill="#F2ECE6"/>
<path d="M152.546 20.6584C152.546 18.7798 153.734 17.4492 155.545 17.4492C155.966 17.4282 156.387 17.493 156.783 17.6398C157.179 17.7865 157.542 18.0122 157.851 18.3037L156.734 19.4256C156.591 19.2865 156.421 19.1787 156.236 19.1091C156.05 19.0395 155.852 19.0096 155.654 19.0212C154.864 19.0212 154.37 19.6735 154.37 20.6584C154.37 21.6434 154.851 22.3153 155.654 22.3153C155.851 22.3263 156.048 22.2974 156.233 22.2302C156.418 22.1629 156.588 22.0588 156.734 21.9239L157.851 23.0458C157.542 23.3364 157.179 23.5612 156.783 23.7068C156.387 23.8524 155.966 23.916 155.545 23.8938C153.734 23.8938 152.546 22.5893 152.546 20.6324" fill="#F2ECE6"/>
<path d="M159.096 15.2256H166.367V23.7511H164.517V16.8824H160.92V23.7511H159.096V15.2256Z" fill="#F2ECE6"/>
<path d="M170.014 25.999H168.26V17.5974H170.014V18.2041C170.223 17.954 170.486 17.7559 170.782 17.6248C171.078 17.4936 171.399 17.433 171.722 17.4474C173.302 17.4474 174.491 18.752 174.491 20.6567C174.491 22.5614 173.302 23.9181 171.722 23.9181C171.4 23.9334 171.079 23.8737 170.782 23.7437C170.486 23.6137 170.223 23.4168 170.014 23.168V25.999ZM171.298 22.2874C171.624 22.3379 171.958 22.286 172.254 22.1388C172.55 21.9915 172.795 21.7559 172.956 21.4635C173.116 21.171 173.185 20.8357 173.153 20.5024C173.121 20.1691 172.989 19.8537 172.776 19.5984C172.563 19.3431 172.277 19.1601 171.959 19.074C171.64 18.9878 171.303 19.0025 170.993 19.1162C170.683 19.2299 170.414 19.4371 170.223 19.7101C170.032 19.983 169.928 20.3087 169.924 20.6436C169.901 20.8445 169.918 21.0481 169.976 21.2418C170.034 21.4354 170.13 21.6149 170.259 21.769C170.388 21.9232 170.547 22.0488 170.726 22.138C170.904 22.2272 171.099 22.278 171.298 22.2874Z" fill="#F2ECE6"/>
<path d="M175.394 20.6568C175.415 20.0392 175.615 19.4416 175.969 18.9384C176.322 18.4352 176.813 18.0487 177.381 17.8269C177.949 17.6052 178.569 17.558 179.163 17.6913C179.758 17.8246 180.3 18.1324 180.723 18.5765C181.147 19.0205 181.432 19.5812 181.544 20.1887C181.656 20.7963 181.589 21.4238 181.352 21.9931C181.116 22.5625 180.719 23.0486 180.213 23.3909C179.706 23.7333 179.111 23.9166 178.503 23.9183C178.081 23.935 177.661 23.8612 177.269 23.7018C176.878 23.5424 176.524 23.3009 176.231 22.9931C175.937 22.6853 175.711 22.3182 175.567 21.9156C175.423 21.513 175.364 21.0841 175.394 20.6568ZM179.774 20.6568C179.774 19.7045 179.293 19.0326 178.49 19.0326C177.687 19.0326 177.205 19.6849 177.205 20.6568C177.205 21.6288 177.7 22.3137 178.49 22.3137C179.28 22.3137 179.774 21.5831 179.774 20.6568Z" fill="#F2ECE6"/>
<path d="M182.476 20.6632C182.447 20.2495 182.504 19.8342 182.641 19.4436C182.778 19.053 182.994 18.6954 183.274 18.3934C183.553 18.0914 183.892 17.8514 184.267 17.6886C184.643 17.5258 185.048 17.4437 185.456 17.4474C187.113 17.4474 188.385 18.4715 188.385 20.8263V21.2503H184.37C184.431 21.5669 184.605 21.8495 184.859 22.0435C185.113 22.2374 185.429 22.329 185.745 22.3005C185.989 22.3102 186.232 22.2622 186.455 22.1604C186.678 22.0585 186.875 21.9055 187.03 21.7134L188.16 22.8614C187.822 23.2 187.42 23.4658 186.979 23.6429C186.537 23.82 186.065 23.9047 185.591 23.8921C185.176 23.9007 184.763 23.8223 184.379 23.6618C183.995 23.5012 183.648 23.2619 183.36 22.9589C183.071 22.6558 182.847 22.2955 182.701 21.9005C182.556 21.5055 182.492 21.0843 182.514 20.6632H182.476ZM186.586 19.9718C186.591 19.8244 186.566 19.6776 186.512 19.5405C186.458 19.4035 186.377 19.2791 186.275 19.1752C186.171 19.0712 186.048 18.9898 185.913 18.9361C185.778 18.8824 185.633 18.8574 185.488 18.8629C185.201 18.8754 184.929 18.9959 184.725 19.2008C184.521 19.4058 184.399 19.6806 184.383 19.9718H186.586Z" fill="#F2ECE6"/>
<path d="M189.653 17.5967H191.406V19.9188H191.669L193.095 17.5967H195.099L193.153 20.6429L195.337 23.7478H193.204L191.599 21.4061H191.406V23.7478H189.653V17.5967Z" fill="#F2ECE6"/>
<path d="M197.336 19.1426H195.563V17.5967H201.009L200.444 19.1426H199.089V23.7478H197.336V19.1426Z" fill="#F2ECE6"/>
<path d="M61.0374 17.847C62.7011 17.7492 64.3774 16.7773 64.3774 14.266V10.0391H67.0557V14.266C67.0899 15.0867 66.9589 15.9059 66.6711 16.6735C66.3832 17.4412 65.944 18.1412 65.3808 18.7308C64.8179 19.3205 64.1421 19.7874 63.3953 20.1031C62.6486 20.4188 61.8464 20.5767 61.0374 20.5671V17.847ZM77.9237 16.3794C77.1149 16.3698 76.3124 16.5277 75.5657 16.8434C74.819 17.1591 74.1435 17.626 73.5802 18.2157C73.017 18.8053 72.5782 19.5053 72.29 20.273C72.0021 21.0406 71.8712 21.8598 71.9053 22.6806V26.9205H74.5836V22.6806C74.5836 20.1692 76.2602 19.1973 77.9237 19.0995V16.3794ZM70.8583 10.0391H68.1221V26.9205H70.8583V10.0391Z" fill="#F2ECE6"/>
<path d="M67.3287 43.5399L69.474 45.7186L82.6733 32.3205C85.2703 29.6718 87.0365 26.301 87.7487 22.6338C88.461 18.9666 88.0875 15.1672 86.6751 11.7154C85.2631 8.26359 82.8755 5.31403 79.8141 3.23902C76.7528 1.16403 73.1544 0.0566406 69.474 0.0566406C65.7933 0.0566406 62.1952 1.16403 59.1338 3.23902C56.0721 5.31403 53.6849 8.26359 52.2726 11.7154C50.8605 15.1672 50.487 18.9666 51.1993 22.6338C51.9115 26.301 53.6774 29.6718 56.2747 32.3205C56.486 32.5389 56.7565 32.6886 57.0519 32.7506C57.347 32.8126 57.6539 32.7842 57.9332 32.6689C58.2125 32.5536 58.4518 32.3566 58.6208 32.103C58.7899 31.8493 58.8808 31.5505 58.8824 31.2442C58.8772 30.8241 58.7085 30.4232 58.4134 30.1288C56.2356 27.9068 54.7553 25.0791 54.1596 22.0029C53.5635 18.9268 53.8789 15.7403 55.0658 12.8462C56.2527 9.95202 58.2575 7.48009 60.8272 5.74269C63.3969 4.00533 66.4159 3.08045 69.5029 3.08501C72.5899 3.08956 75.6066 4.02333 78.171 5.76829C80.7358 7.51326 82.7337 9.99113 83.9121 12.8888C85.0907 15.7864 85.397 18.9738 84.7924 22.0481C84.1875 25.1225 82.6993 27.9458 80.5149 30.1614L67.3287 43.5399Z" fill="#F2ECE6"/>
</g>
<path d="M13.8159 19.1561C13.8159 16.5656 15.9129 14.4274 18.5445 14.4274C21.135 14.4274 23.2732 16.5245 23.2732 19.1561C23.2732 21.7466 21.1761 23.8848 18.5445 23.8848C15.954 23.8848 13.8159 21.7466 13.8159 19.1561ZM26.2748 19.1561C26.2748 14.8798 22.8209 11.4258 18.5445 11.4258C14.2682 11.4258 10.8142 14.8798 10.8142 19.1561C10.8142 23.4324 14.2682 26.8864 18.5445 26.8864C22.8209 26.8864 26.2748 23.4324 26.2748 19.1561Z" fill="#F2ECE6"/>
<path d="M31.6615 19.1559C31.6615 11.919 25.7815 6.03906 18.5446 6.03906C11.3077 6.03906 5.42773 11.919 5.42773 19.1559C5.42773 22.7744 6.90801 26.0639 9.25177 28.4076C9.53961 28.6955 9.90967 28.8599 10.3209 28.8599C11.1432 28.8599 11.8423 28.202 11.8423 27.3386C11.8423 26.9274 11.6778 26.5162 11.3899 26.2283C9.58072 24.4191 8.47052 21.8698 8.47052 19.1148C8.47052 13.5227 12.9936 8.99961 18.5857 8.99961C24.1779 8.99961 28.7009 13.5227 28.7009 19.1148C28.7009 21.9109 27.5496 24.4191 25.7404 26.2695L12.5824 39.4275L14.7206 41.5656L27.8374 28.4488C30.2223 26.0228 31.6615 22.7744 31.6615 19.1559Z" fill="#F2ECE6"/>
<path d="M16.4064 43.2514L18.5445 45.3896L31.6614 32.2727C34.992 28.901 37.0891 24.2957 37.0891 19.1559C37.0891 8.91731 28.7831 0.611328 18.5445 0.611328C8.30598 0.611328 0 8.91731 0 19.1559C0 24.2546 2.09705 28.901 5.42767 32.2316C5.7155 32.5194 6.08557 32.6839 6.49676 32.6839C7.31913 32.6839 8.01815 32.026 8.01815 31.1625C8.01815 30.7513 7.85367 30.3402 7.56584 30.0523C4.76977 27.2563 3.04278 23.3911 3.04278 19.1147C3.04278 10.5621 9.99185 3.57188 18.5857 3.57188C27.1383 3.57188 34.1285 10.5209 34.1285 19.1147C34.1285 23.3911 32.4015 27.2974 29.5643 30.0934L16.4064 43.2514Z" fill="#F2ECE6"/>
<defs>
<clipPath id="clip0_67_2774">
<rect width="150" height="46" fill="white" transform="translate(51)"/>
</clipPath>
</defs>
</svg>
