<svg width="43" height="52" viewBox="0 0 43 52" class="h-[44px] md:h-[52px] w-[36px] md:w-[43px] mr-10" fill="#FF0000" xmlns="http://www.w3.org/2000/svg"><path d="M12 19.7879C13.872 19.6777 15.7581 18.5839 15.7581 15.7574V11H18.7717V15.7574C18.8101 16.6811 18.6628 17.6031 18.3389 18.4671C18.015 19.3311 17.5208 20.1189 16.8871 20.7826C16.2537 21.4462 15.4933 21.9717 14.6531 22.3271C13.813 22.6824 12.9104 22.8601 12 22.8493V19.7879ZM31 18.136C30.09 18.1252 29.187 18.3029 28.3469 18.6583C27.5067 19.0136 26.7466 19.5391 26.1129 20.2028C25.4792 20.8664 24.9854 21.6543 24.6611 22.5183C24.3372 23.3823 24.1899 24.3042 24.2283 25.228V30H27.2419V25.228C27.2419 22.4015 29.1283 21.3076 31 21.1975V18.136ZM23.0502 11H19.9716V30H23.0502V11Z"></path><path d="M19.0238 49.5189L21.5 52L36.7353 36.7422C39.7328 33.7258 41.7715 29.8872 42.5936 25.711C43.4157 21.5347 42.9846 17.208 41.3544 13.2771C39.7245 9.34612 36.9687 5.98713 33.4351 3.62411C29.9015 1.2611 25.7481 0 21.5 0C17.2515 0 13.0985 1.2611 9.56489 3.62411C6.03092 5.98713 3.2755 9.34612 1.64528 13.2771C0.0154406 17.208 -0.4157 21.5347 0.406419 25.711C1.22854 29.8872 3.26678 33.7258 6.26467 36.7422C6.50866 36.9909 6.82083 37.1614 7.16181 37.232C7.5024 37.3027 7.85663 37.2703 8.17903 37.139C8.50144 37.0077 8.77763 36.7834 8.97274 36.4945C9.16785 36.2057 9.2728 35.8653 9.27469 35.5166C9.26863 35.0382 9.0739 34.5816 8.73331 34.2463C6.21959 31.7159 4.51095 28.4956 3.82332 24.9925C3.13532 21.4894 3.4994 17.8607 4.86935 14.5648C6.23929 11.2689 8.55334 8.45386 11.5194 6.4753C14.4855 4.49678 17.9702 3.44353 21.5333 3.44872C25.0965 3.45391 28.5786 4.51728 31.5386 6.50446C34.499 8.49163 36.805 11.3134 38.1651 14.6133C39.5256 17.9131 39.8791 21.5429 39.1812 25.044C38.483 28.5451 36.7653 31.7603 34.244 34.2834L19.0238 49.5189Z"></path></svg>