<svg width="393" height="354" viewBox="0 0 393 354" fill="none" xmlns="http://www.w3.org/2000/svg">
<g clip-path="url(#clip0)">
<path d="M294.05 34.1482H289.837V6.52782H294.05V17.3602H294.751C297.049 17.3602 297.769 14.8758 297.769 13.0326V6.52782H301.982V12.856C301.982 15.7589 300.909 17.9362 298.826 19.3608C301.082 20.962 301.982 22.9626 301.982 25.8886V34.1482H297.769V25.7004C297.769 23.9149 296.922 21.7453 294.782 21.7645H294.05V34.1482ZM365.498 34.1482V6.52782H369.247V22.6554L373.571 6.52782H378.262V34.1482H374.475V14.9487L369.308 34.1751L365.498 34.1482ZM381.246 34.1482V6.52782H384.995V22.6554L389.319 6.52782H394.01V34.1482H390.223V14.9487L385.056 34.1751L381.246 34.1482ZM392.256 0V3.23319H382.996V0H392.256ZM354.786 34.1482H350.573V6.52782H354.786V17.3602H355.483C357.781 17.3602 358.505 14.8758 358.505 13.0326V6.52782H362.717V12.856C362.717 15.7589 361.645 17.9362 359.562 19.3608C361.817 20.962 362.717 22.9626 362.717 25.8886V34.1482H358.505V25.7004C358.505 23.9149 357.658 21.7453 355.517 21.7645H354.786V34.1482ZM278.574 34.0983H274.361V6.49326H286.862V17.5714H282.576V10.4368H278.578V30.1547H282.576V23.0394H286.862V34.0983H278.578H278.574ZM339.31 34.0983H335.097V6.49326H347.601V17.5714H343.312V10.4368H339.314V30.1547H343.312V23.0394H347.601V34.0983H339.314H339.31ZM267.1 10.4368H263.179V30.1547H267.1V10.4368ZM263.102 34.0983H258.889V6.49326H271.39V34.0983H263.102ZM313.164 10.4368H309.243V30.1547H313.164V10.4368ZM309.166 34.0983H304.953V6.49326H317.45V34.0983H309.166ZM324.642 10.4368V17.8402C326.212 17.9246 328.108 17.8402 328.108 15.0178V12.5065V10.4368H324.642ZM324.642 21.7914V30.1547H328.108V24.7788C328.108 21.9719 326.212 21.7069 324.642 21.7914ZM332.302 11.3546V14.7414C332.302 16.9416 331.398 18.5429 329.958 19.572C331.49 20.8007 332.302 22.7053 332.302 25.063V34.0983H324.642H320.429V6.49326H324.642H332.302V11.3546ZM247.055 24.9862C248.155 19.0843 249.591 12.495 250.253 6.5547H255.914V34.1482H252.241V23.2275L252.674 13.359C252.145 16.5346 250.077 28.2348 247.446 33.8372H246.661C244.034 28.2348 241.966 16.5346 241.437 13.359L241.87 23.2275V34.1482H238.197V6.52782H243.854C244.516 12.495 245.952 19.0843 247.055 24.9862Z" fill="#EB3333"/>
<path d="M288.669 42.4311V54.7188C290.239 54.8032 292.116 54.5383 292.116 51.7198V49.2085V42.4311H288.669ZM296.329 48.0719V51.4549C296.329 55.7018 294.134 58.6739 290.052 58.6739H288.65V66.0925H284.437V38.4875C288.397 38.5106 292.361 38.4875 296.309 38.4875L296.329 48.0719ZM297.477 38.4722H310.499V42.4311H306.114V66.0925H301.901V42.4311H297.504L297.477 38.4722ZM277.314 42.4311H273.392V62.149H277.314V42.4311ZM273.304 66.0925H269.091V38.4875H281.588V66.0925H273.304ZM242.394 66.0925H238.182V38.4875H250.709V49.5656H246.404V42.4311H242.406V62.149H246.404V55.0144H250.709V66.0925H242.406H242.394ZM257.851 66.0925H253.638V38.4875H266.131V66.0925H261.861V42.4311H257.863L257.851 66.0925Z" fill="#EB3333"/>
<path d="M166.004 270.294C172.085 277.692 178.607 284.714 185.536 291.321C218.031 322.302 259.675 344.558 306.172 354V326.172C267.553 317.21 232.959 298.16 205.657 272.137C196.718 263.621 188.55 254.327 181.25 244.363L166.004 270.294Z" fill="#EB3333"/>
<path d="M65.2089 241.314C95.6324 212.308 114.509 172.308 114.509 128.322V6.52783H142.964V128.322C142.964 149.741 146.533 174.846 153.067 194.299C159.604 174.846 163.17 149.756 163.17 128.322V6.52783H191.629V128.322C191.629 172.308 210.513 212.308 240.936 241.314C259.504 258.958 281.799 272.179 306.165 279.994V308.409C274.194 299.794 244.869 283.328 220.838 260.499C203.242 243.797 189.037 223.839 179.006 201.725C171.58 220.855 163.384 238.972 153.151 252.765L153.082 252.857L153.017 252.765C142.784 238.968 134.588 220.855 127.163 201.725C117.13 223.839 102.924 243.798 85.3265 260.499C61.2953 283.327 31.9698 299.791 0 308.405L0 279.99C24.3581 272.174 46.6465 258.954 65.2089 241.314Z" fill="#EB3333"/>
<path d="M237.141 125.772C237.141 157.82 250.905 186.972 273.06 208.122C282.795 217.387 293.971 224.998 306.149 230.655V260.199C286.34 253.034 268.224 241.835 252.943 227.306C225.641 201.249 208.683 165.315 208.683 125.772V98.3281H237.141V125.772Z" fill="#EB3333"/>
<path d="M69.0272 98.3281H97.4821V125.772C97.4821 165.323 80.5279 201.249 53.2104 227.295C37.9281 241.824 19.811 253.023 0 260.187L0 230.643C12.1773 224.99 23.3537 217.383 33.0889 208.122C55.2631 186.984 69.0272 157.82 69.0272 125.783V98.3281Z" fill="#EB3333"/>
<path d="M124.907 244.363C117.608 254.328 109.44 263.622 100.5 272.137C73.2054 298.16 38.6114 317.21 0 326.172V354C46.4777 344.558 88.1223 322.302 120.637 291.321C127.565 284.715 134.088 277.693 140.168 270.294L124.907 244.363Z" fill="#EB3333"/>
</g>
<defs>
<clipPath id="clip0">
<rect width="393" height="354" fill="white"/>
</clipPath>
</defs>
</svg>
